<?xml version="1.0" encoding="UTF-8" standalone="no"?>
<svg
   id="Layer_1"
   viewBox="0 0 254.66001 28.700006"
   version="1.1"
   sodipodi:docname="dan-white.svg"
   width="254.66"
   height="28.700001"
   inkscape:version="1.2.1 (9c6d41e410, 2022-07-14)"
   xmlns:inkscape="http://www.inkscape.org/namespaces/inkscape"
   xmlns:sodipodi="http://sodipodi.sourceforge.net/DTD/sodipodi-0.dtd"
   xmlns="http://www.w3.org/2000/svg"
   xmlns:svg="http://www.w3.org/2000/svg">
  <sodipodi:namedview
     id="namedview23"
     pagecolor="#505050"
     bordercolor="#eeeeee"
     borderopacity="1"
     inkscape:showpageshadow="0"
     inkscape:pageopacity="0"
     inkscape:pagecheckerboard="0"
     inkscape:deskcolor="#505050"
     showgrid="false"
     inkscape:zoom="4.6328042"
     inkscape:cx="1.7268159"
     inkscape:cy="18.455345"
     inkscape:window-width="2558"
     inkscape:window-height="1360"
     inkscape:window-x="1913"
     inkscape:window-y="0"
     inkscape:window-maximized="0"
     inkscape:current-layer="text426" />
  <defs
     id="defs4">
    <style
       id="style2">.cls-1{fill:#fff;}.cls-2{fill:none;stroke:#fff;stroke-miterlimit:10;stroke-width:.7px;}</style>
  </defs>
  <polygon
     class="cls-1"
     points="62.07,77.07 62.07,63.94 66.29,60.79 74.23,54.86 74.23,46.15 42.45,46.15 42.45,54.86 50.4,60.79 54.61,63.94 54.61,73.98 "
     id="polygon6"
     transform="matrix(0.92166167,0,0,0.92166167,-38.989193,-42.412834)"
     style="fill:#ffffff" />
  <g
     aria-label="data.altinn.no"
     id="text426">
    <path
       d="m 50.715608,13.218059 q -1.367187,1.660155 -1.367187,4.296871 0,2.636716 1.367187,4.280595 1.367186,1.643878 3.662106,1.643878 2.294919,0 3.580725,-1.627602 1.26953,-1.627603 1.253254,-4.296871 0,-2.669268 -1.253254,-4.296871 -1.253254,-1.627603 -3.564449,-1.627603 -2.311196,0 -3.678382,1.627603 z m 11.50715,12.727852 H 59.71625 q -0.09766,0 -0.16276,-0.16276 l -0.341797,-1.334634 q -0.09766,-0.292968 -0.32552,-0.0651 -0.699869,0.699869 -2.13216,1.302082 -1.43229,0.602213 -2.636716,0.585937 -3.629554,0 -5.777989,-2.408852 -2.148436,-2.408852 -2.148436,-6.34765 0,-3.938798 2.148436,-6.34765 2.148435,-2.4088522 5.777989,-2.4251282 1.529947,0 2.913409,0.6835931 1.383462,0.6835931 1.855467,1.2207021 0.130208,0.130208 0.227864,0.08138 0.09766,-0.04883 0.09766,-0.146484 V 2.638642 q 0,-0.1627603 0.179037,-0.1627603 h 2.832028 q 0.16276,0 0.16276,0.1627603 v 23.144509 q 0,0.16276 -0.16276,0.16276 z"
       style="font-size:33.3333px;font-family:NBInternationalPro-Reg;-inkscape-font-specification:'NBInternationalPro-Reg, Normal';fill:#ffffff"
       id="path174" />
    <path
       d="m 77.61988,18.54032 q 0,-0.162761 -0.179037,-0.162761 H 72.7859 q -2.441404,0.09766 -3.304033,0.797526 -0.86263,0.716145 -0.86263,1.75781 0,1.041666 0.830078,1.774087 0.830077,0.732421 2.669268,0.732421 2.766924,0 4.101559,-1.302082 1.334634,-1.302082 1.399738,-3.124997 z m 5.387364,4.736323 v 2.506508 q 0,0.16276 -0.16276,0.16276 h -1.204426 q -2.571612,0.03255 -3.287757,-1.529946 -0.09766,-0.260416 -0.309245,-0.0651 -0.732421,0.764973 -2.262367,1.35091 -1.529947,0.585937 -3.629554,0.569661 -3.271481,0 -4.980464,-1.448566 -1.725259,-1.448567 -1.725259,-3.792314 0,-2.343748 1.888019,-3.743487 1.888019,-1.399738 5.452469,-1.399738 h 3.72721 q 0.927733,0 1.074218,-0.472005 0.03255,-0.16276 0.03255,-0.960285 0,-0.797525 -0.716145,-1.822915 -0.716146,-1.02539 -3.597002,-1.057942 -2.034503,-0.01628 -3.043617,0.830078 -1.009114,0.846353 -1.009114,2.213539 0,0.16276 -0.179036,0.16276 h -2.864581 q -0.16276,0 -0.16276,-0.16276 0,-2.799476 2.115884,-4.329423 2.132159,-1.5299462 5.387364,-1.5462222 3.255205,-0.016276 5.240881,1.5787742 1.985675,1.595051 1.985675,4.58984 v 6.542962 q 0,0.878906 0.260416,1.26953 0.260417,0.390625 1.171874,0.390625 h 0.634765 q 0.16276,0 0.16276,0.16276 z"
       style="font-size:33.3333px;font-family:NBInternationalPro-Reg;-inkscape-font-specification:'NBInternationalPro-Reg, Normal';fill:#ffffff"
       id="path176" />
    <path
       d="m 93.87963,23.276643 v 2.506508 q 0,0.16276 -0.179037,0.16276 h -2.555336 q -4.361975,0.09766 -4.378251,-3.938798 V 11.753217 q 0,-0.162761 -0.16276,-0.179037 h -2.962237 q -0.16276,0 -0.16276,-0.16276 V 9.2467086 q 0,-0.1627603 0.16276,-0.1627603 h 2.962237 q 0.16276,0 0.16276,-0.1790363 V 4.4127288 q 0,-0.1627602 0.179036,-0.1627602 h 2.832029 q 0.16276,0 0.16276,0.1627602 V 8.904912 q 0,0.1627603 0.162761,0.1790363 h 3.597001 q 0.162761,0 0.179037,0.1627603 V 11.41142 q 0,0.16276 -0.179037,0.16276 h -3.597001 q -0.162761,0 -0.162761,0.179037 v 9.700511 q 0,1.660155 1.806639,1.660155 h 1.953123 q 0.179037,0 0.179037,0.16276 z"
       style="font-size:33.3333px;font-family:NBInternationalPro-Reg;-inkscape-font-specification:'NBInternationalPro-Reg, Normal';fill:#ffffff"
       id="path178" />
    <path
       d="m 108.47923,18.54032 q 0,-0.162761 -0.17904,-0.162761 h -4.65494 q -2.44141,0.09766 -3.30404,0.797526 -0.862626,0.716145 -0.862626,1.75781 0,1.041666 0.830076,1.774087 0.83008,0.732421 2.66927,0.732421 2.76692,0 4.10156,-1.302082 1.33463,-1.302082 1.39974,-3.124997 z m 5.38736,4.736323 v 2.506508 q 0,0.16276 -0.16276,0.16276 h -1.20443 q -2.57161,0.03255 -3.28775,-1.529946 -0.0977,-0.260416 -0.30925,-0.0651 -0.73242,0.764973 -2.26236,1.35091 -1.52995,0.585937 -3.62956,0.569661 -3.27148,0 -4.980463,-1.448566 -1.725258,-1.448567 -1.725258,-3.792314 0,-2.343748 1.888019,-3.743487 1.888022,-1.399738 5.452472,-1.399738 h 3.72721 q 0.92773,0 1.07421,-0.472005 0.0326,-0.16276 0.0326,-0.960285 0,-0.797525 -0.71615,-1.822915 -0.71614,-1.02539 -3.597,-1.057942 -2.0345,-0.01628 -3.04362,0.830078 -1.00911,0.846353 -1.00911,2.213539 0,0.16276 -0.179038,0.16276 h -2.86458 q -0.16276,0 -0.16276,-0.16276 0,-2.799476 2.115883,-4.329423 2.132155,-1.5299462 5.387365,-1.5462222 3.2552,-0.016276 5.24088,1.5787742 1.98568,1.595051 1.98568,4.58984 v 6.542962 q 0,0.878906 0.26041,1.26953 0.26042,0.390625 1.17188,0.390625 h 0.63476 q 0.16276,0 0.16276,0.16276 z"
       style="font-size:33.3333px;font-family:NBInternationalPro-Reg;-inkscape-font-specification:'NBInternationalPro-Reg, Normal';fill:#ffffff"
       id="path180" />
    <path
       d="m 120.80017,25.945911 h -4.0039 q -0.16276,0 -0.16276,-0.16276 v -4.069006 q 0,-0.162761 0.16276,-0.162761 h 4.0039 q 0.16276,0 0.16276,0.162761 v 4.069006 q 0,0.16276 -0.16276,0.16276 z"
       style="font-size:33.3333px;font-family:NBInternationalPro-Reg;-inkscape-font-specification:'NBInternationalPro-Reg, Normal';fill:#ffffff"
       id="path182" />
    <path
       d="m 136.70185,18.54032 q 0,-0.162761 -0.17903,-0.162761 h -4.65495 q -2.4414,0.09766 -3.30403,0.797526 -0.86263,0.716145 -0.86263,1.75781 0,1.041666 0.83008,1.774087 0.83007,0.732421 2.66927,0.732421 2.76692,0 4.10155,-1.302082 1.33464,-1.302082 1.39974,-3.124997 z m 5.38737,4.736323 v 2.506508 q 0,0.16276 -0.16276,0.16276 h -1.20443 q -2.57161,0.03255 -3.28776,-1.529946 -0.0976,-0.260416 -0.30924,-0.0651 -0.73242,0.764973 -2.26237,1.35091 -1.52995,0.585937 -3.62955,0.569661 -3.27148,0 -4.98047,-1.448566 -1.72526,-1.448567 -1.72526,-3.792314 0,-2.343748 1.88802,-3.743487 1.88802,-1.399738 5.45247,-1.399738 h 3.72721 q 0.92774,0 1.07422,-0.472005 0.0326,-0.16276 0.0326,-0.960285 0,-0.797525 -0.71614,-1.822915 -0.71615,-1.02539 -3.59701,-1.057942 -2.0345,-0.01628 -3.04361,0.830078 -1.00912,0.846353 -1.00912,2.213539 0,0.16276 -0.17903,0.16276 h -2.86458 q -0.16276,0 -0.16276,-0.16276 0,-2.799476 2.11588,-4.329423 2.13216,-1.5299462 5.38737,-1.5462222 3.2552,-0.016276 5.24088,1.5787742 1.98567,1.595051 1.98567,4.58984 v 6.542962 q 0,0.878906 0.26042,1.26953 0.26041,0.390625 1.17187,0.390625 h 0.63477 q 0.16276,0 0.16276,0.16276 z"
       style="font-size:33.3333px;font-family:NBInternationalPro-Reg;-inkscape-font-specification:'NBInternationalPro-Reg, Normal';fill:#ffffff"
       id="path184" />
    <path
       d="m 148.19273,2.638642 v 23.144509 q 0,0.16276 -0.16276,0.16276 h -2.83203 q -0.16276,0 -0.17904,-0.16276 V 2.638642 q 0,-0.1627603 0.17904,-0.1627603 h 2.83203 q 0.16276,0 0.16276,0.1627603 z"
       style="font-size:33.3333px;font-family:NBInternationalPro-Reg;-inkscape-font-specification:'NBInternationalPro-Reg, Normal';fill:#ffffff"
       id="path186" />
    <path
       d="m 161.62045,23.276643 v 2.506508 q 0,0.16276 -0.17903,0.16276 h -2.55534 q -4.36198,0.09766 -4.37825,-3.938798 V 11.753217 q 0,-0.162761 -0.16276,-0.179037 h -2.96224 q -0.16276,0 -0.16276,-0.16276 V 9.2467086 q 0,-0.1627603 0.16276,-0.1627603 h 2.96224 q 0.16276,0 0.16276,-0.1790363 V 4.4127288 q 0,-0.1627602 0.17903,-0.1627602 h 2.83203 q 0.16276,0 0.16276,0.1627602 V 8.904912 q 0,0.1627603 0.16276,0.1790363 h 3.59701 q 0.16276,0 0.17903,0.1627603 V 11.41142 q 0,0.16276 -0.17903,0.16276 h -3.59701 q -0.16276,0 -0.16276,0.179037 v 9.700511 q 0,1.660155 1.80664,1.660155 h 1.95313 q 0.17903,0 0.17903,0.16276 z"
       style="font-size:33.3333px;font-family:NBInternationalPro-Reg;-inkscape-font-specification:'NBInternationalPro-Reg, Normal';fill:#ffffff"
       id="path188" />
    <path
       d="m 168.52149,2.638642 v 3.4993456 q 0,0.1627603 -0.17904,0.1790363 h -3.49934 q -0.16276,0 -0.16276,-0.1790363 V 2.638642 q 0,-0.1627603 0.16276,-0.1627603 h 3.49934 q 0.17904,0 0.17904,0.1627603 z m -0.3418,6.6080666 V 25.783151 q 0,0.16276 -0.16276,0.16276 h -2.83203 q -0.16276,0 -0.16276,-0.16276 V 9.2467086 q 0,-0.1627603 0.16276,-0.1627603 h 2.83203 q 0.16276,0 0.16276,0.1627603 z"
       style="font-size:33.3333px;font-family:NBInternationalPro-Reg;-inkscape-font-specification:'NBInternationalPro-Reg, Normal';fill:#ffffff"
       id="path190" />
    <path
       d="m 172.93229,9.0839483 h 2.5065 q 0.0977,0 0.16276,0.1627603 l 0.32552,1.4973944 q 0.0488,0.130208 0.17904,0.130208 0.13021,0 0.19531,-0.09766 1.46485,-2.0345032 4.36198,-2.0345032 3.46679,0 5.37109,2.2135392 1.90429,2.21354 1.90429,5.664057 v 9.163403 q 0,0.16276 -0.17903,0.16276 h -2.83203 q -0.16276,0 -0.16276,-0.16276 v -9.163403 q 0,-2.132159 -1.05794,-3.597001 -1.07422,-1.448567 -3.22266,-1.448567 -2.14843,0 -3.35286,1.481119 -1.20443,1.481118 -1.20443,3.564449 v 9.163403 q 0,0.16276 -0.16276,0.16276 h -2.83202 q -0.16276,0 -0.16276,-0.16276 V 9.2467086 q 0,-0.1627603 0.16276,-0.1627603 z"
       style="font-size:33.3333px;font-family:NBInternationalPro-Reg;-inkscape-font-specification:'NBInternationalPro-Reg, Normal';fill:#ffffff"
       id="path192" />
    <path
       d="m 192.02407,9.0839483 h 2.50651 q 0.0977,0 0.16276,0.1627603 l 0.32552,1.4973944 q 0.0488,0.130208 0.17903,0.130208 0.13021,0 0.19531,-0.09766 1.46485,-2.0345032 4.36198,-2.0345032 3.46679,0 5.37109,2.2135392 1.90429,2.21354 1.90429,5.664057 v 9.163403 q 0,0.16276 -0.17903,0.16276 h -2.83203 q -0.16276,0 -0.16276,-0.16276 v -9.163403 q 0,-2.132159 -1.05794,-3.597001 -1.07422,-1.448567 -3.22266,-1.448567 -2.14843,0 -3.35286,1.481119 -1.20442,1.481118 -1.20442,3.564449 v 9.163403 q 0,0.16276 -0.16276,0.16276 h -2.83203 q -0.16276,0 -0.16276,-0.16276 V 9.2467086 q 0,-0.1627603 0.16276,-0.1627603 z"
       style="font-size:33.3333px;font-family:NBInternationalPro-Reg;-inkscape-font-specification:'NBInternationalPro-Reg, Normal';fill:#ffffff"
       id="path194" />
    <path
       d="m 214.89189,25.945911 h -4.00391 q -0.16276,0 -0.16276,-0.16276 v -4.069006 q 0,-0.162761 0.16276,-0.162761 h 4.00391 q 0.16276,0 0.16276,0.162761 v 4.069006 q 0,0.16276 -0.16276,0.16276 z"
       style="font-size:33.3333px;font-family:NBInternationalPro-Reg;-inkscape-font-specification:'NBInternationalPro-Reg, Normal';fill:#ffffff"
       id="path196" />
    <path
       d="m 219.48172,9.0839483 h 2.50651 q 0.0977,0 0.16276,0.1627603 l 0.32552,1.4973944 q 0.0488,0.130208 0.17904,0.130208 0.13021,0 0.19531,-0.09766 1.46484,-2.0345032 4.36198,-2.0345032 3.46679,0 5.37109,2.2135392 1.90429,2.21354 1.90429,5.664057 v 9.163403 q 0,0.16276 -0.17904,0.16276 h -2.83202 q -0.16276,0 -0.16276,-0.16276 v -9.163403 q 0,-2.132159 -1.05795,-3.597001 -1.07421,-1.448567 -3.22265,-1.448567 -2.14844,0 -3.35286,1.481119 -1.20443,1.481118 -1.20443,3.564449 v 9.163403 q 0,0.16276 -0.16276,0.16276 h -2.83203 q -0.16276,0 -0.16276,-0.16276 V 9.2467086 q 0,-0.1627603 0.16276,-0.1627603 z"
       style="font-size:33.3333px;font-family:NBInternationalPro-Reg;-inkscape-font-specification:'NBInternationalPro-Reg, Normal';fill:#ffffff"
       id="path198" />
    <path
       d="m 249.90162,21.795525 q 1.36718,-1.643879 1.36718,-4.280595 0,-2.636716 -1.36718,-4.280595 -1.36719,-1.643879 -3.71094,-1.643879 -2.34375,0 -3.72721,1.627603 -1.38346,1.660155 -1.38346,4.296871 0,2.636716 1.38346,4.280595 1.38346,1.643878 3.72721,1.643878 2.34375,0 3.71094,-1.643878 z m 2.32747,-10.660797 q 2.21354,2.408851 2.21354,6.380202 0,3.97135 -2.21354,6.363926 -2.21354,2.392576 -6.07096,2.392576 -3.85742,0 -6.05468,-2.392576 -2.19727,-2.392576 -2.19727,-6.363926 0,-3.971351 2.19727,-6.363926 2.19726,-2.3925762 6.05468,-2.3925762 3.85742,0 6.07096,2.3763002 z"
       style="font-size:33.3333px;font-family:NBInternationalPro-Reg;-inkscape-font-specification:'NBInternationalPro-Reg, Normal';fill:#ffffff"
       id="path200" />
  </g>
</svg>
